<svg version="1.1" xmlns="http://www.w3.org/2000/svg" xmlns:xlink="http://www.w3.org/1999/xlink" style="" xml:space="preserve" width="32" height="32">
<path d="M22.5495081145739,9.101754949667725 c1.3406970587086082,0.4280877308506943 2.7502131679592936,0.5432285688036391 4.225999474028274,0.3483748430371169 c0.3619372287768488,-0.047237266852490425 0.7162278963823556,-0.10333152123982282 1.0603231490927396,-0.15647344644887448 c1.6465595055622835,-0.2479956509755747 3.02294051640382,-0.38970745153304576 3.5123204313697,1.0392198707547884 c0.8640614123616319,2.5242414474299544 -1.0909093937781071,7.9919550856057135 -2.1206462981854797,10.203249640137921 c-2.1206462981854797,4.55544392208704 -6.346645772213754,9.65116408379944 -11.23534721442499,8.139571544519747 c-0.7621072634104074,-0.236186334262452 -1.4477489151073943,-0.6199891274389363 -2.059473808814744,-1.1395990628163304 c1.6057778459817933,-1.0362675415765077 2.8751070004245447,-2.627572968669777 3.8564156840800843,-4.4993496676997085 l-0.0025488537237806277,0.005904658356561303 c1.2158032262433578,0.0767605586352969 2.4800346732385474,0.8207475115620202 3.6372142638349505,1.6060670729846729 c0.08411217288476068,-1.7684451777901082 -1.3916741331842208,-2.9434721907458066 -2.7068826546550233,-3.6756498269594076 c1.0552254416451785,-2.742713806622722 1.6134244071531356,-5.8219931395694395 1.7867464603702174,-8.570611604548724 C22.55460582202146,11.552188167640663 22.582643212983047,10.391922800576372 22.5495081145739,9.101754949667725 L22.5495081145739,9.101754949667725 zM0.9097399996764016,4.776592703486576 c0.3976211809097777,-0.4369447183855362 0.9991506597220045,-0.5520855563384814 1.682243457695212,-0.50189596030771 c1.2820734230616542,0.09152220452670015 2.6074773594275786,0.5491332271602014 3.8513179766325227,0.9388406786932463 c2.704333800931242,0.8443661449882653 5.35004396621553,0.5697995314081659 7.926935080957741,-0.8089381948488977 c0.34664410643416516,-0.18599673823168103 0.6856416516969891,-0.3778981348199232 1.0144437820646885,-0.5609425438733234 C16.95477419087543,2.963862588022258 18.290373542136475,2.2936838645525506 19.185021199183474,3.533662119430423 c1.5828381624677677,2.190628250284241 1.1928635427293321,8.396424183030163 0.7977912155433362,10.997426189095416 c-0.8156331916098003,5.358477458579376 -3.5760417744642155,12.06616935163301 -8.890401788546818,12.429305840561529 c-2.81903221850137,0.19190139658824226 -5.222601280026498,-1.644447352302321 -7.292270503736366,-5.113434136782083 c-1.3177573751945828,-2.361863342624519 -2.2684798141647557,-4.788677927171212 -2.8496184631867383,-7.283396082818359 C0.5325096485568687,12.744929155666046 -0.38252883828037576,6.2025676965961285 0.9097399996764016,4.776592703486576 L0.9097399996764016,4.776592703486576 zM3.5427058963417863,12.981115489928497 c-0.48683106124209946,-0.14761645891403252 -0.7672049708579677,-0.33066086796743305 -0.8615125586378506,-0.5461808979819203 c-0.37468149739575224,-0.8620801200579495 2.717078069550145,-3.0379467244507867 4.898896857106359,-1.0392198707547884 C10.682045176651314,14.191570453023564 4.643810705015016,13.359013624748421 3.5427058963417863,12.981115489928497 L3.5427058963417863,12.981115489928497 zM8.561398878465836,21.392301318850066 c-0.8232797527811417,-0.6819880401828297 -1.2642314469951894,-1.5234018559928146 -1.5038236970305685,-2.663000918809145 c2.719626923273926,1.5942577562715505 5.265931793330769,1.479116918318606 7.63636575644675,-0.7144636611439168 c-0.09430758777988317,0.9713162996543331 -0.3670349362244102,1.8422534072471246 -0.8360240214000453,2.606906664421812 C12.473889344469093,22.880275224703514 10.450099487787277,22.95408345416053 8.561398878465836,21.392301318850066 L8.561398878465836,21.392301318850066 zM17.3396511031663,11.729327918337503 c0.4562448165567316,-0.2479956509755747 0.7034836277634525,-0.4871343144163069 0.7621072634104074,-0.7203683195004784 c0.23449454258781763,-0.9270313619801239 -3.147834348869071,-2.417957597011851 -4.980460176267339,0.008856987534841959 C10.508723123434232,14.421852128929455 16.317560759930274,12.331603070706755 17.3396511031663,11.729327918337503 L17.3396511031663,11.729327918337503 zM23.393178697145288,15.27507526145256 c1.2846222767854345,-1.1927409880253819 3.043331346194065,-0.9506499954063685 4.266781133608764,0.21552003001448744 c0.3109601543012363,0.2981852470063458 1.1648261517677454,1.1661700254208562 0.6728973830780857,1.6414950231240408 c-0.13508924736037317,0.12990248384434863 -0.3593883750530685,0.20371071330136492 -0.6703485293543047,0.22142468837104887 c-0.7595584096866261,0.1003791920615421 -1.8657609258074173,-0.0826652169918583 -2.7476643142355126,-0.5048482894859909 C24.22155615737399,16.523910503865274 23.69649229027518,16.089918114658023 23.393178697145288,15.27507526145256 L23.393178697145288,15.27507526145256 z" fill="#ffffff" fill-opacity="1"/>
</svg>